<?xml version="1.0" encoding="UTF-8" standalone="no"?>
<!-- Created with Inkscape (http://www.inkscape.org/) -->

<svg
   version="1.1"
   id="svg2"
   width="2666.6667"
   height="2666.6667"
   viewBox="0 0 2666.6667 2666.6667"
   sodipodi:docname="cat_silueta.eps"
   xmlns:inkscape="http://www.inkscape.org/namespaces/inkscape"
   xmlns:sodipodi="http://sodipodi.sourceforge.net/DTD/sodipodi-0.dtd"
   xmlns="http://www.w3.org/2000/svg"
   xmlns:svg="http://www.w3.org/2000/svg">
  <defs
     id="defs6" />
  <sodipodi:namedview
     id="namedview4"
     pagecolor="#ffffff"
     bordercolor="#000000"
     borderopacity="0.25"
     inkscape:showpageshadow="2"
     inkscape:pageopacity="0.0"
     inkscape:pagecheckerboard="0"
     inkscape:deskcolor="#d1d1d1" />
  <g
     id="g8"
     inkscape:groupmode="layer"
     inkscape:label="ink_ext_XXXXXX"
     transform="matrix(1.3333333,0,0,-1.3333333,0,2666.6667)">
    <g
       id="g10"
       transform="scale(0.1)">
      <path
         d="M 0,20000 H 20000 V 0 H 0 v 20000"
         style="fill:none;fill-opacity:1;fill-rule:nonzero;stroke:none"
         id="path12" />
      <path
         d="m 18969.7,13592 c 113.4,130.5 169.3,328.4 147.5,518.8 -22.3,220.7 -195.1,394.6 -147.5,633.2 23.6,519.8 194.1,970.1 42,1444.5 -160.6,668 -696.6,871 -1084.4,1187.9 -92.5,31.8 -160.8,96.7 -222.7,173.2 -72.5,56.7 -135.5,126.6 -184.3,194.1 -55.8,169.8 -26.5,381 -115.5,547.2 -61.9,107 -113.9,225.1 -203.5,309.8 -405.3,99.7 -371.8,506.9 -520,560.7 -210.8,58.4 -69.8,-376.8 -164.4,-510.3 -163.1,-6.8 -278.3,-97.2 -363,-211.1 -50.7,-115.5 -216,-104 -244.7,-217.7 -24.4,-103.7 56.4,-237.4 133.5,-317.9 67.7,-75.8 167.4,-88.6 217.7,-177.4 78.4,-175.7 -26.3,-416.6 -32.8,-613.9 10.4,-207 -17.3,-436.5 106.9,-603.2 18.7,-134.7 143.1,-195.1 187.2,-318.9 101.3,-174.2 261.3,-480.1 254.9,-688.2 -2.1,-324.6 -123.1,-711.4 -172.1,-1031.7 -115.3,-56.8 -355.3,2.4 -320.4,-137.8 153.7,-255.6 1052.7,-211.6 1225.4,-227.2 359,9.2 728,-13.3 1078.3,42.3 207.2,64.4 243,-102.7 191.4,-280.6 -49.6,-93.4 -118.2,-170.1 -210.8,-225.4 -158.1,-59.2 -323,-133.1 -507.3,-128.3 -198.5,-31.9 -364.9,-6.5 -574.2,15.1 -127.5,70.7 -667.2,46 -379.1,-109.7 582.6,-262 1595.6,-208.8 1862,172.5 h -0.1"
         style="fill:#040606;fill-opacity:1;fill-rule:nonzero;stroke:none"
         id="path14" />
      <path
         d="m 15893.3,2313.3 c -98.8,-164.7 -122.9,-293.5 -213.3,-459.8 -84,-154.7 -118,-328.2 -203.3,-490.9 -70.5,53.9 -119.9,-110.5 -158.8,-152 -63.5,-67.6 -96.5,-57.4 -201,-57.8 -86.2,-0.3 -224.9,34.5 -138.1,148.6 66.6,87.6 265,39.7 294.1,228.6 13.6,88.8 33.6,182.4 47.3,272.9 26.6,176.2 44.8,363.4 71.1,539.4 25.1,167.8 -59.4,297.1 -134.3,446.9 -73.6,147.2 -115.6,298.6 -148.4,452.2 -31.5,147.5 -101.5,306.6 -174.2,441.6 -58.2,108.1 -50.2,257.1 -221,318.3 0.5,-5.8 -184.5,25.4 -204.8,34.8 -57.6,26.5 -92.7,61.5 -122.6,117.1 -25.4,47.1 -67.9,159.7 -47.1,211.6 30,74.5 125.6,79.6 176.3,132.6 44.5,46.4 51.3,96.2 110.4,139.9 61.2,45.3 266.1,170.6 343.2,106 l -84.6,31.7 c 42.8,26.4 -8.5,117.9 2.4,179 31.3,-44.1 91.9,-164.4 145.7,-136.7 l 116.3,179.8 c 38.8,-87.4 74.8,-211.4 126.6,-296.4 51.6,-84.5 144.2,-132 211.6,-203 155.2,-163.6 199.9,-370.6 444.5,-431.3 3.6,-134 749.9,-91.1 877.8,-84.6 355.3,17.9 710.1,10.6 1068.3,10.6 174.2,0 355.1,-4.2 528.9,12.9 195.2,19.2 283.9,49.8 351.6,240.9 52.4,147.6 70.4,325.4 92.6,476 20.3,138.6 52.2,377.4 18.8,515.8 -24.7,102.2 -71.7,339.8 -174.8,354.3 -372.8,52.7 -325.3,285.4 -182.5,261.6 v -10.6 c -4.3,6.1 32.1,2 -11.8,10.8 155.2,-32.9 281.5,-35.5 411.1,-140.4 124.8,-101 181.8,-248.5 206,-399.2 54.8,-342.1 48.4,-675.9 -52.9,-996.6 -71.3,-225.5 -190.8,-480.5 -192.7,-716.9 l 10.5,105.8 c 0.6,-170.6 108.5,-232.1 148.1,-380.8 40.6,-152.7 14.5,-290.2 -2.4,-452.4 -15.8,-152.9 32.1,-281.9 89.3,-423.2 45.3,-111.8 99.9,-250.4 177.5,-340.7 123.4,-98.3 -4.6,-626.7 -44.6,-751 -49.4,-153.4 -96.2,-152.9 -251.5,-161 -61.5,-3.2 -128.6,-27.6 -158.9,33.8 -34.8,70.5 28.8,135.4 84.8,158.9 l 10.6,21.2 c 33.3,50 54.2,100.6 71.7,158.6 19.8,65.4 49.1,181.3 5.5,246.1 -32.8,48.8 -155.3,93.3 -206.7,121.8 -135.6,75 -254,146.4 -370.3,253.6 -243.1,223.9 -366.6,495.8 -740,438.6 -159.8,-24.5 -317,-59.8 -484.2,-76.4 -167.5,-16.7 -333.5,4.7 -505.4,12.9 -177.7,8.5 -329.5,8.6 -501.8,-21.1 -182.7,-31.6 -267.9,-123.6 -346.7,-288"
         style="fill:#040606;fill-opacity:1;fill-rule:nonzero;stroke:none"
         id="path16" />
      <path
         d="m 537.207,1515.9 c 101.711,-22.2 204.184,-30.7 307.66,-15 63.531,9.7 138.563,70.8 136.996,74.2 24.407,14.8 47.437,37.9 73.707,42.3 46.72,7.8 84.55,25.2 116.56,59.5 101.24,108.4 209.14,208.8 337.41,285.6 27.24,16.3 254.66,165.1 315.8,255.1 15.45,22.7 43.04,37.3 65.83,54.7 33.41,25.5 153.3,134.4 170.46,175.9 18.31,44.2 68.52,78.1 110.17,109.3 45.78,34.4 103.92,50.3 143.96,95.5 8.37,9.4 39.21,13.8 46.52,6.7 41.01,-39.3 92.09,-24.8 138.85,-31.6 66.57,-9.7 134.9,-11.6 199.65,-28 49.82,-12.7 92.07,-44.7 119.1,-94.2 32.43,-59.2 174.97,-309.5 208.22,-378.2 38.06,-78.7 134.73,-318.8 142.72,-360.2 4.45,-23 -8.37,-34.5 -34.05,-41.3 -55.25,-14.8 -110.73,-42.4 -117.37,-104.1 -4.41,-41.1 17.93,-85.1 29.49,-127.6 0.97,-3.6 9.9,-6.5 15.45,-7.2 104.39,-13.7 208.34,-35.4 314.5,-14.7 30.63,5.8 42.57,19 51.65,52.7 27.36,101.4 -2.95,200 -2.72,299.8 0,29.7 -23.26,212.9 -38.94,274.9 -19.16,76 -104.1,543.2 -108.11,591.1 34.68,8.9 66.48,16.9 98.18,25.3 8.16,2.2 18.83,3.5 23.58,9.2 32.58,40 630.68,6.3 666.97,0.9 50.12,-7.5 196.67,-28.9 219.64,-30.2 28.71,-1.6 60.7,-4.2 86.11,6.3 64.86,26.7 159.2,-8.9 183.31,-87.3 20.93,-67.8 48.41,-134.2 98.5,-189 42.95,-46.9 82.55,-97.3 120.87,-147.9 36.38,-48.3 69.43,-99 103.54,-148.9 18.95,-27.7 39.32,-54.8 55.1,-84.3 25.94,-48.5 15.86,-95.5 -18.2,-135.6 -50.97,-60.2 -104.47,-118.2 -157.1,-176.9 -10.52,-11.8 -23.37,-21.7 -32.43,-34.4 -26.11,-36.1 -56.93,-54.5 -103.18,-38.7 -12.41,4.3 -29.48,1 -42.51,-3.8 -55.81,-20.7 -103.6,-54.2 -134.02,-105.4 -10.35,-17.4 -10.32,-45.5 -5.52,-66.5 16.81,-73.4 28.63,-85.3 105.37,-84.7 101.71,0.8 203.42,7.5 304.95,14.5 25.56,1.7 262,293.3 272.58,300.7 83.34,56.8 123.14,145.5 167.39,230.1 32.43,62.3 59.41,127.5 86.94,192.3 5.75,13.5 6.19,30.9 4.01,45.8 -10.79,73.5 -24.59,146.6 -34.28,220.2 -2.36,17.9 -28.84,212.3 -7.73,225.7 9.52,6.1 26.03,7 37.39,3.7 87.17,-25.9 173.78,-53.7 260.75,-80.2 68.13,-20.8 135.38,-48.7 205.16,-58.7 74.88,-10.8 138.05,-45.1 193.36,-87 85.5,-64.7 125.59,-163.8 159.47,-263.5 19.87,-58.5 43.15,-116 58.72,-175.6 10.59,-40.5 32.08,-117 32.43,-159.2 0.44,-66.7 46.26,-131.8 117.51,-196.4 24.68,-22.4 72.94,22.9 106.13,50.5 56.96,47.1 40.78,103.1 43.63,182.9 0.48,12.8 -102.97,262.4 -169.66,475.5 -38.65,123.4 -45.58,234.4 -63.09,279.6 -23.58,61.1 -89,202.5 -98.91,207.7 -56.66,29.4 -103.18,68.2 -139.53,122.6 -21.34,31.9 -59.2,52.3 -85.32,81.7 -15.94,18 -31.04,42.4 -33.52,65.4 -4.24,39.2 -70.75,102 -72.43,112.4 -8.85,53.4 -17.69,106.9 -22.52,160.7 -2.95,33.7 -8.85,146 -14.39,168 -2.3,9.4 -8.37,20.3 -5.66,28.1 22.49,64.4 -18.99,113.5 -40.68,166 -27.16,65.7 -65.6,127.1 -69.99,200.5 -1.62,27.2 -0.59,54.6 -1.42,81.8 -0.32,10.7 0.15,22.6 -4.06,31.9 -36.94,81.4 -1.68,149.5 39.68,215.8 50.97,81.9 105.04,161.9 154.54,244.7 23.91,40 40,84.5 60.4,126.6 8.57,18.7 18.63,36.6 30.07,53.6 43.08,61.3 71.46,128.5 92.34,200.5 10.94,37.7 36.85,71 48.46,108.6 25.3,81.9 46.11,165.3 67.81,248.3 2.95,11.3 115.42,465.1 -202.12,888.5 -11.32,15.1 -36.91,21.1 -56.25,30.8 -6.81,3.4 -17.34,3.3 -20.99,8.5 -60.09,85 -338.71,220.1 -361.5,200.4 -5.57,-4.8 -19.89,-5.4 -26.83,-1.7 -84.72,45.5 -322.58,-21.1 -419.42,-117.9 -71.96,-71.8 -61.91,-100.2 -83.4,-173.9 -14.21,-48.5 -20.64,-122.9 6.22,-147.3 38.33,-34.6 107.81,-34.3 158.96,2.7 19.58,14.2 35.38,33.5 54.54,48.3 68.37,52.8 146.29,86.6 229.95,54.8 57.25,-21.8 111.38,-60.3 157.1,-102.1 89.92,-82.2 143.43,-186.4 149.18,-310.5 2.56,-55.7 7.4,-112.9 -1.33,-167.4 -19.66,-123.2 -38.32,-247.8 -73.94,-366.8 -33.66,-112.2 -83.16,-220.8 -136.85,-325.4 -26,-50.6 -76.14,-89.4 -117.92,-131 -27.45,-27.3 -61.61,-47.8 -89.21,-74.9 -83.58,-82.3 -185.32,-94 -291.59,-70.5 -306.28,67.4 -614.36,70 -924.32,35.9 -153.3,-16.9 -307.37,-27.6 -460.14,-48.2 -223.87,-30.2 -867.53,-126.8 -966.14,-140 -3.66,-0.1 -7.27,-0.9 -10.64,-2.3 -101,-56.9 -208.93,-46.8 -313.74,-22.4 -94.13,21.8 -193.98,30 -276.88,89.5 -79.33,57 -163.27,108.1 -239.24,169.1 -60.29,48.4 -120.87,90.7 -194.58,117.9 -113.29,42.1 -208.9,111.8 -285.02,207.4 -33.22,41.7 -69.63,81 -105.65,120.3 -14.16,15.5 -31.2,28.3 -46.91,42.4 l -36.88,-49.5 c -31.1,5.6 -46.11,-3.4 -47.17,-42.4 -1.21,-45.9 2.57,-92.1 7.43,-137.9 6.07,-57.5 -5.16,-99.3 -66.45,-124.4 -73.2,-29.9 -139.949,-73.3 -187.882,-139.2 -14.2,-19.6 -27.039,-40 -38.442,-61.3 -37.793,-70.4 -72.789,-141.9 -136.734,-194.8 -25.617,-21.2 -45.926,-50.6 -62.91,-79.6 -8.84,-15 -11.965,-40.2 -5.657,-56.1 17.247,-43.1 40.442,-84 62.2,-125.3 6.722,-12.7 18.515,-22.9 24.324,-35.9 38.738,-87 129.066,-131.9 218.891,-113.3 95.58,19.8 179.1,-7.9 249.35,-75.5 6.96,-6.7 13.36,-19.3 20.64,-19.6 63.56,-3.1 124.67,-145.6 136.17,-167.5 21.34,-40.9 76.65,-167.5 76.45,-191 -0.74,-50.7 -5.9,-101.3 -6.79,-152 -1.3,-71.4 -16.97,-352.5 -20.99,-421.9 -2.94,-51.5 2.95,-103.4 0.95,-155 -0.74,-19.1 -12.03,-38 -19.34,-56.7 -18.81,-48.1 -38.65,-95.8 -57.02,-144.1 -36.11,-94.9 -242.95,-366.2 -288.14,-420.1 -27.3,-32.4 -233.905,-257.3 -320.609,-325.1 -22.671,-17.7 -62.851,-24.5 -92.128,-19.5 -38.028,6.5 -68.391,2.5 -99.883,-17.4 -16.094,-10.1 -37.028,-12.2 -52.828,-23.3 -52.446,-36.4 -67.039,-121.5 -0.145,-174.9"
         style="fill:#040606;fill-opacity:1;fill-rule:nonzero;stroke:none"
         id="path18" />
      <path
         d="m 13271.1,14060.9 c 21.3,-20.1 42.2,-40.8 63.4,-61.1 -0.1,20.4 -0.1,40.7 -0.1,61.1 -21.1,0.1 -42.3,0.1 -63.3,0 z m -1065.9,40.7 v -20.3 c 42.5,-5.9 85,-11.7 127.5,-17.9 17.2,-2.3 35,-4.5 51.9,0.9 44.7,12.5 89.6,24.7 134.3,37.4 0,5 0,15.2 0,20.2 -104.8,-1.3 -209.1,-14.1 -313.7,-20.3 m 1628.4,307.5 c -25.5,-13.3 -53.2,-21.7 -81.7,-24.4 0,-6.5 0.1,-12.9 0.2,-19.4 97.5,-6.6 195.1,-13.3 292.6,-20.4 -6.6,67.5 -13.8,134.8 -20.7,202.2 -60,-50.5 -120,-102.5 -190.4,-138 m 680.2,4406.8 c 28.9,14.5 66.6,22 94.6,1.5 41.5,-30.2 57.1,-82.5 70.2,-129.8 30.4,-125 32.8,-254.6 35.2,-382.6 1.5,-36.2 -15.1,-69.7 -19.9,-105.1 11.7,-115.8 29,-231.1 40.1,-346.9 -5.7,-155.7 -14.2,-311.4 -20.1,-467.1 -0.5,-91.6 0.2,-183.2 -0.3,-274.9 -5.2,-88.9 -14.3,-177.6 -19.8,-266.6 3.5,-61.7 11,-123.2 16.1,-184.9 7.5,-62.9 1.4,-126.4 -3.4,-189.2 -24.9,-254 -102.1,-499.7 -197.7,-735.2 -13.4,-41 -19.5,-84.1 -29.6,-125.9 -65.3,-309.1 -123.3,-621.3 -139.2,-937.3 -0.7,-44.5 -6.3,-89.5 2.2,-133.6 15.6,-92.4 34.3,-185 68,-272.8 25,-61.6 62.1,-138.5 137.5,-144.7 33.9,-34 70.2,-65.9 102.8,-101.2 0.9,-31.2 2.1,-62.7 -1.1,-93.8 -7.9,-33.2 -40.2,-51.9 -69.3,-64.5 -66.3,-26.9 -138.2,-35.4 -208.9,-42.8 -20.8,-2.9 -39.9,7.8 -57.7,16.9 -81.5,46.5 -143.1,118.8 -207.6,185.1 -25.2,8.7 -34.4,-30 -59.7,-20.1 -90.2,31.2 -178.8,67.1 -268.8,99.2 -22.1,4.4 -44.9,1.7 -67.2,2.2 0,-27.1 -0.1,-54.2 0,-81.4 72.1,-59.6 145.5,-123.1 189,-207.5 22.9,-44.2 31.8,-105.6 -7,-143.9 -53.8,-52.2 -132.3,-63.9 -203.2,-75 -7.1,7.2 -14.1,14.3 -21,21.4 -35.9,-2 -70.1,-13.9 -104.9,-21.5 -54.8,26.6 -110.3,60.2 -142.1,114 -16.6,26.8 -23.1,58.1 -25.1,89 -111.9,-69.2 -243.9,-101.3 -374.8,-101.6 -44.2,75.1 -95.6,151.2 -172.5,195.9 -29.5,17.4 -63.1,25.7 -96.9,28.3 -10.5,-29.5 -37.3,-47.3 -63.2,-62.2 -77.5,-42.4 -161.8,-70.6 -245.4,-98.1 -47.6,-5.8 -96.5,-3.6 -143.7,5.6 -132,22.8 -264.7,52.5 -386.1,110.6 -72.4,35.5 -143.9,83.9 -182.7,156.9 -39,72.4 -37,168.1 14.4,234.1 51.8,67.1 132,103.5 210.3,129.9 141.5,45.5 290.4,61 438,70.6 -20.6,241.5 -41.3,483 -61.9,724.6 -1.2,195.9 12.5,392.4 45.8,585.6 43,248.3 121.6,493.4 256.1,707.9 146.2,236.6 365.2,426.7 619.4,539.3 97.9,33.1 199.8,65.5 281.4,131.5 15.1,13.7 42.1,32.8 25.9,55.8 -67.2,90.1 -135,180.6 -187,280.6 -19.7,40.8 -40.4,83.9 -38.7,130.4 0.7,57.1 -0.9,114.2 0.7,171.3 5.6,8.3 13.1,14.9 20,22.1 -63,142.4 -121,287.4 -163.8,437.3 -26.4,95.6 -47.4,193.9 -45.3,293.6 14.3,13.1 28.1,26.6 41.7,40.4 51.4,-9.4 94.8,-41 138.5,-67.9 114.9,-76.4 223.2,-162.1 330.9,-248.2 16.6,-16.3 41.8,-7.5 62.5,-8.3 124.4,11.3 250.5,24.1 369.2,65.6 39.8,15.5 81.8,34.1 107.8,69.5 14.6,18.6 12.2,44.3 25.2,63.7 50.5,84.1 103.5,166.9 165.7,242.6 37,42.4 76,85.1 126.4,111.6"
         style="fill:#040606;fill-opacity:1;fill-rule:nonzero;stroke:none"
         id="path20" />
      <path
         d="m 8472.96,12490.9 c 13.56,24.3 42.79,24 67.05,24.4 6.99,-86.4 8.2,-177.1 45.92,-256.9 12.03,-29.9 44.3,-36.7 73.42,-33.4 113.07,91.9 226.34,183.4 339.61,275.1 35.39,34.9 105.28,7.3 103.86,-44.3 8.9,-217.4 -44.3,-432.2 -116.2,-635.9 9.71,-8.9 19.82,-18.2 29.93,-27.4 -7.88,-134.1 15.28,-266.4 28.32,-399.3 -5.26,-101.1 -22.25,-201.5 -27.91,-302.5 7.08,-70.9 62.81,-123.1 114.58,-166.2 120.05,-93.9 259.81,-158.1 398.57,-219.2 119.54,-51.1 241.31,-97.3 364.28,-139.8 62.9,-18.2 112.81,-62.7 167.21,-97.3 311.8,-214.9 591.8,-484 787.2,-810.6 240.8,-398.7 340.9,-876.5 298.7,-1339 -5.9,-94.3 -14,-188.3 -18.5,-282.7 298.7,-88.1 609.8,-127.8 920.1,-142.8 146,23.6 290,62.2 426.9,118.6 150.3,62.9 293.4,153.1 395.4,282.1 80.2,100.1 130.7,222.5 149.5,349.1 7.6,63.2 19.9,129.4 -0.7,191.3 -36.2,138.5 -71.5,277.3 -107.4,415.8 9.4,9.6 19,19 28.8,28.4 41,-1.9 84.2,5.8 124,-3.6 174.7,-135 240.1,-368.2 232.3,-581.1 -29.1,-168.2 -78.6,-334.1 -158.4,-485.5 -79.4,-151.5 -191.8,-286.8 -331.3,-386.6 -154.7,-112.2 -338.2,-179.8 -525.2,-214.3 -200.5,-38.8 -405.5,-32.9 -608.7,-31.3 -303.6,17.4 -607.2,38.1 -910.2,64.7 -220.4,20.6 -441,42.9 -659.5,78.7 -85.3,14.8 -170.56,30.8 -253.19,56.8 -12.74,-73.5 -92.84,-99.3 -154.94,-117.7 -222.79,-56.3 -454.79,-50.8 -682.75,-56.6 -101.64,-24.5 -202.36,-53.4 -303.6,-79.4 -28.82,-10.3 -56.43,7.6 -83.03,15.9 -57.04,23.9 -121.46,55.1 -144.72,116.6 -2.93,36.7 -5.76,75 2.02,111 25.49,47.6 81.82,64.7 128.95,83.3 167.68,55.3 343.95,77.6 518.41,100.6 20.83,43.3 70.38,56.7 113.67,66.2 71,15.6 143.92,17.7 216.22,21.5 -119.74,271.8 -178.6,569.1 -177.69,865.7 -63.2,44.3 -126.92,87.9 -190.02,132.2 -13.35,11.5 -30.95,12.2 -47.24,13.6 -15.47,-235.8 -47.23,-471.7 -110.84,-699.7 -39.24,-131.3 -89.3,-264.4 -180.72,-369 -63.31,-73 -157.97,-122.9 -256.27,-115.7 -57.55,0.6 -107.51,38.6 -136.94,86 -17.39,28.2 -43.28,64.5 -16.28,95.3 66.24,92.8 164.95,154.7 254.45,222.7 14.26,57 29.03,113.7 43.89,170.4 6.68,27 16.39,53.9 14.77,82.2 -4.35,231.1 -66.35,456.9 -148.67,671.4 -21.14,-0.5 -42.37,1.9 -62.9,-2.7 -365.8,-130.8 -747.07,-211 -1127.23,-287.3 -58.76,-133.7 -116.81,-267.9 -177.29,-400.9 -37.82,-32.2 -79.19,-61.4 -120.75,-88.8 -65.13,-2.4 -139.46,17.3 -175.97,75.8 -39.95,64 -32.77,143.7 -24.18,215.1 21.24,160.5 115.7,302.7 236.25,407.1 163.33,141.4 362.97,232.9 564.73,305.1 67.35,25.6 137.85,42.5 205.1,67.7 118.53,121 173.44,289.8 204.49,452.7 -10.52,69.5 -33.38,137.3 -43.49,207.1 -38.13,219.2 -59.47,441.2 -72.51,663.1 17.29,183.5 38.63,366.9 59.16,550.1 -106.9,146.6 -213.29,296.4 -281.96,465.5 -26.09,63.6 -42.88,130.9 -47.12,199.6 41.96,59.2 97.99,109.7 165.55,137.7 60.88,27.1 127.93,35.7 194.07,37.8 28.93,29 58.66,57.3 88.19,85.7 h 327.17 c 9.61,70.3 13.15,146.1 51.57,207.8 v 0"
         style="fill:#040606;fill-opacity:1;fill-rule:nonzero;stroke:none"
         id="path22" />
      <path
         d="m 5393.33,18720.7 c 107.16,23.5 215.49,42.2 323.1,64.2 32.88,8.1 65.49,-6 97.01,-14.5 64.67,-19.8 130.34,-56.9 159.69,-121 22.83,-46.8 16.48,-100.3 17.21,-150.8 -15.49,-15.1 -30.98,-30.2 -46.65,-45.1 -22.83,0.5 -45.56,0.5 -68.21,0.4 -53.62,37.6 -107.51,74.9 -161.32,112.2 -68.38,-1.5 -138.85,-19.3 -192.11,-63.9 -61.87,-50.6 -97.47,-125.8 -118.39,-201.4 -30.16,-108.7 -34.69,-222.5 -34.06,-334.7 -3.26,-90.9 16.94,-180.4 26.36,-270.6 13.95,-112.2 29.98,-224.2 42.57,-336.6 1.54,-369.2 -90.4,-736.5 -252.26,-1067.4 27.63,-151.2 56.34,-302.2 84.78,-453.3 12.23,-53.7 5.07,-109.2 6.98,-163.8 -1.55,-42.4 4.62,-85.8 -6.35,-127.5 -47.73,-202.6 -94.47,-405.5 -141.93,-608.2 -22.74,-74.1 -7.61,-152.3 -12.41,-228.4 -31.07,-25.4 -38.95,-66.9 -49.37,-103.7 -46.92,-195.2 -63.04,-396.2 -90.67,-594.4 -69.47,-82.5 -175,-125.2 -276.45,-153 -76.35,15.7 -155.97,30.5 -223.27,71.8 -38.14,21.4 -24.82,68.9 -26.91,104.4 -3.8,47 38.32,79.7 72.02,104.9 48.27,33.3 103.16,55.1 157.96,75 7.34,69.9 17.76,139.6 22.92,209.7 -0.64,193.5 5.35,388.6 -25.36,580.3 -10.78,45.8 -16.94,105.6 -65.58,127.2 -3.44,-90.8 17.48,-180.6 20.92,-271.2 -112.95,-245.7 -228.98,-490.2 -343.11,-735.5 -53.8,-13.9 -106.79,-31.5 -161.05,-43.2 -61.96,-1.8 -123.91,-0.6 -185.78,-0.2 -29.35,30.1 -59.96,58.7 -90.03,87.8 1.36,39.1 -10.78,89 26.44,115.5 72.11,53.6 164.13,66.7 249.55,86.5 37.68,156.7 78.08,312.9 114.31,469.7 -20.65,54.9 -60.5,99.6 -93.39,147.1 -79.62,106.9 -163.22,210.6 -247,314.2 -45.38,57.9 -97.1,111.3 -133.61,175.6 -43.02,71.8 -90.67,145.6 -100.72,230.5 -14.68,0.5 -29.08,0.6 -43.57,0.7 -15.58,-56.8 -54.89,-102.5 -89.4,-148.8 -37.87,-48.2 -77.63,-95 -118.75,-140.5 14.58,-149 30.52,-297.8 45.83,-446.7 -5.61,-0.3 -16.94,-0.7 -22.55,-1 7.42,-7.2 14.85,-14.3 22.55,-22 -0.09,-36.9 -0.18,-73.7 0,-110.8 -7.7,-7.4 -15.31,-15.2 -22.83,-23.1 7.34,-7 14.86,-14 22.47,-21.4 -8.97,-229.5 -22.1,-459.2 -48.01,-687.5 -13.67,-110.1 -27.81,-221.1 -60.87,-327.5 -14.22,-36.1 -25.72,-84 -66.21,-99 -57.43,-14.1 -113.68,-34 -171.74,-45.2 -74.27,10.4 -149.27,24.8 -218.57,54.4 -29.71,12.5 -63.77,37.4 -54.71,74.3 11.96,70.8 41.67,143.7 100.73,187.9 36.68,28.2 83.6,37.5 128.89,39.8 -24.09,261.4 -44.11,523.1 -70.74,784.2 -27.72,-31.4 -35.23,-74 -44.75,-113.6 -24.27,-112.1 -38.85,-226 -53.26,-339.8 -8.96,-58.7 -7.88,-119.8 -29.25,-176.1 -28.36,-80.8 -66.22,-161.9 -130.26,-220.9 -46.37,-43.3 -108.87,-68.5 -172.46,-68.2 -63.86,0.7 -135.68,-8.7 -190.04,32.5 -25.62,21.2 -54.25,52.9 -41.75,88.8 17.21,68.3 48.28,138.7 108.51,179.3 34.7,24.3 77.36,32.4 118.93,34.5 14.23,113.3 32.61,226.1 45.02,339.6 -0.45,199.4 -13.41,401.6 -71.11,593.5 -38.04,122.1 -99.81,245.4 -209.14,318.3 -65.13,43.9 -144.02,63.7 -221.92,64.1 -127.53,1.7 -233.51,86.1 -319.83,171.7 -122.74,126.5 -227,271.3 -307.07,428.3 -147.1,276.4 -277.62,567.5 -329.71,878.2 -6.15,44.3 -10.23,89.1 -26.63,131.1 -41.21,136.2 -52.53,279.4 -53.25,421.1 23,29.9 46.01,59.8 69.11,89.6 19.38,-1.8 42.48,5.2 58.33,-9.7 121.1,-90.1 242.57,-179.9 363.67,-270.2 15.31,-14.6 37.14,-9.6 56.34,-10.2 181.43,4 366.31,22.4 535.6,91.9 74.54,31.4 145.83,73.3 203.62,130.5 30.34,34.5 76.63,46.2 115.67,67.6 11.05,-12.3 27.71,-23.7 21.83,-43 -14.31,-149.2 -30.53,-298.2 -45.74,-447.3 108.6,100.1 222.28,195.6 347.55,274.6 171.74,110.1 366.03,191.7 570.55,210.8 178.72,13.7 359.33,-7.6 532.25,-53.7 289.22,-77.7 552.26,-235 776.63,-431.3 125.45,-109.2 240.3,-230.3 346.37,-358.3 85.87,179.8 116.84,381.1 114.49,579.1 -1.9,71.9 5.16,144.3 -7.25,215.5 -12.41,100.2 -27.17,200.1 -38.04,300.5 0.09,192 17.12,388.2 87.77,568.5 43.12,108.7 111.78,211.5 210.87,276.3 v 0"
         style="fill:#040606;fill-opacity:1;fill-rule:nonzero;stroke:none"
         id="path24" />
      <path
         d="m 14021.7,7565.6 c 18.5,16.9 55.2,7.5 79.2,37.1 7.3,9 32.9,-1.4 51.5,14.6 21.8,18.8 51.1,19.3 74.9,32.8 36.7,21 166.3,10.7 189.8,38.2 1.2,1.3 4.8,1.4 7,0.9 26.4,-6.1 79,26.4 116.1,19.9 15.6,-2.8 823.6,172.5 851.9,165 27.6,-7.4 8.5,-1.4 513.3,50.2 102.8,10.5 235.5,35.5 409.2,13.9 21.4,-2.7 43.3,-4.9 64.5,3.3 9.1,3.5 17,-4.1 26.5,-3.8 214.5,5.9 215.7,-11.1 407.6,34.9 294,70.5 219.8,31.9 407.5,86.6 57.7,16.8 356,92.6 356,92.6 4.9,3.7 12.3,0.5 17.2,-7.7 17.6,-29.1 43.2,-44.9 78.4,-46.7 46.9,-2.4 100,-21.3 184.1,-17 31.5,1.6 135.2,54.2 217.1,84.9 26.4,9.8 44.1,31.3 68.7,43.4 72.8,35.9 144.9,73.5 217.3,110.3 35.9,18.4 56.5,2.2 55.3,-20.1 -1.6,-26.6 10.2,-56.6 -21.5,-85.7 -258,-236.7 -264.7,-241.2 -284.8,-267.1 -11.6,-14.9 -29.2,-27.8 -52.2,-28.1 -48,-0.7 -81.7,-35.3 -82.9,-83.4 -1.3,-53 -38.8,-133.4 127,-171.5 31.8,-7.3 60.3,10 90,17.1 113.4,27.1 227.8,131.8 269.9,153.4 37.1,19 36.2,12.7 273.1,384.2 41,64.3 116.2,170.9 122,201.7 59.7,316 45.1,230.9 49.4,415.7 2.7,119 -4.8,98.3 21.5,140.5 96.3,154.5 147.9,246.6 183.8,345.8 44.7,123.2 105,121.1 127.3,227.4 3.7,18 39.1,202 35.4,220.2 -10.1,50.3 -11.2,102.1 -25,151.9 -31.6,114.1 25.4,4.5 -95.4,340.9 -133.6,372.2 -66.5,252.4 -245.2,865.7 -324.9,1115.3 -312.5,1112.4 -366.9,1151.6 -49,35.4 -90.4,141.8 -225.6,171 -52.7,11.3 -106.5,25.9 -160.7,16.1 -350.6,-63.6 -107.1,29.8 -600.1,-139.8 -96,-33.1 -70.6,-164.4 32.2,-156.4 75.1,5.9 430.4,60.1 497,68.2 23,2.8 125,-4 125.1,-4 61,7.7 87.2,-30 134.6,-72.2 51.2,-45.7 36,-30.4 104.2,-262.9 68.4,-233.4 67.3,-209.8 86.3,-354 99.8,-757.8 103,-585.9 -9.7,-876 -7.8,-20 24,-0.3 -529.5,-247.3 -47.1,-21 -278.2,-194.1 -278.2,-194.1 -45.5,-12.8 -74.7,-48.4 -107.6,-78.2 -1125.5,-1018.7 -680.4,-594.7 -935.9,-782.9 -25.7,-19 -11.8,-9 -422.7,-155.9 -13.4,-4.8 -25.9,-5.6 -38.7,0.1 -70.9,31.9 -146.4,42.2 -223,46.7 -41.2,2.4 -18.4,15.6 -115.3,91 -20.7,16.2 -30.9,16.8 -131.4,30.7 -20.2,2.9 -19.5,5.5 -103.2,91.7 -24.6,25.3 17.9,21.6 -61.5,82.6 -23.9,18.4 -51,32.1 -74.2,52.1 -19.1,16.4 -35.2,13.6 -52.3,-4.8 -10.3,-11 -25.6,-13.7 -35.6,-26.9 -62.2,-81.9 -74.2,-265.8 -186.7,-308.2 -58.2,-21.9 -33.5,-54.1 -81.9,-74.2 -126.4,-52.5 -163.3,-129.6 -192.2,-167.3 -38.8,-50.7 2.7,-67.8 -31.2,-91.3 -12.1,-8.3 -13.5,-17.9 -8.7,-32.5 46.7,-144.2 -80.4,-176.8 -31.2,-254.2 14.6,-23 21.1,-49 24.7,-75.3 6,-43.4 35.9,-73.3 79.7,-74.8 14.5,-0.5 25.4,-2.4 30.7,-18.3 3.1,-9.2 33.4,-18.1 45.4,-15.5 10,2.2 82.3,23.1 81.4,-8.5 -0.2,-5.5 -832,-300.4 -834.7,-300.5 -56.8,-2.9 -111.3,-22.5 -169,-20.8 -75.4,2.2 -158.3,-12.3 -195.5,-9.1 -4.3,0.3 -9.3,2 -12.6,0.4 -25.2,-12.9 -53.4,-19 -77.4,-34.4 -7.1,-4.5 -13.6,-10.2 -20.8,-14.6 -57.2,-34.8 -45.5,-98.1 -38.4,-104.8 21.1,-19.8 30.8,-49.1 56.2,-65.6 19.4,-12.5 19.5,-43.6 0.9,-56.5 -16.5,-11.5 -21.1,-46.9 -63.1,-42.9 -12,1.1 -21.1,-2.4 -29.5,-10.3 -16.2,-15.5 -40.1,-23.3 -47.2,-47.9 -1.8,-6.2 -15.1,-0.9 -12.4,-9.7 6.4,-19.8 -0.5,-41.7 10.4,-60.4 3.9,-6.9 6.7,-13.8 7.3,-22.1 3.4,-54.9 46.5,-88.4 101.5,-78.3 44.2,8.1 88,4.9 131.4,-4 13.6,-2.8 28,-0.7 41,-6.9 9.7,0.1 19.4,0.1 29.1,0.1"
         style="fill:#040606;fill-opacity:1;fill-rule:nonzero;stroke:none"
         id="path26" />
      <path
         d="m 9430.78,14105.7 c 965.82,-75.9 950.62,409.6 950.62,409.6 642.2,404.5 156.8,1188.3 156.8,1188.3 96.1,900.1 -80.9,1243.9 -80.9,1243.9 80.9,713 -136.5,895 -136.5,895 -222.5,854.6 -556.28,869.8 -556.28,869.8 -50.57,91 -176.98,177 -283.17,212.4 -106.19,35.4 -91.02,-197.2 -91.02,-197.2 -495.56,278.1 -520.84,197.2 -520.84,197.2 60.68,-50.6 151.7,-374.2 151.7,-374.2 -247.78,-227.6 -222.49,-778.7 -222.49,-778.7 156.75,-202.3 247.77,-207.4 247.77,-207.4 0,0 -116.3,-333.7 -60.67,-551.1 0,0 -1061.9,-1587.8 -419.71,-2705.4 0,0 -627.02,-591.6 -1233.82,-379.2 -606.8,212.4 0,1243.9 0,1243.9 0,0 66.74,241.7 -171.93,70.8 -394.42,-283.1 -662.42,-1626.2 -23.26,-1712.2 1776.91,-239.6 1950.86,601.8 2293.7,574.5"
         style="fill:#040606;fill-opacity:1;fill-rule:nonzero;stroke:none"
         id="path28" />
      <path
         d="m 7993.33,4205 c -47.15,59.6 -80.5,127.8 -20.23,186 0,0 25.4,-17.4 15.49,-11.3 65.81,-86.6 221.14,-195.9 433.07,-198.5 195.46,-2.3 373.48,-48 559.2,-47.6 190.76,0.4 330.29,124.2 523.52,119 198.47,-5.3 358.05,-74.3 556.52,-21.2 357.8,95.7 748.7,164 1133,164 193.1,0 380.5,-25.3 571.1,-35.7 222.4,-12.1 356.5,5.6 532.5,133.6 163.4,118.7 300.9,235.4 490.2,318.6 180.6,79.4 305.7,125.6 419.6,294.4 243,360.1 -204.2,752.9 12.6,1121.4 104.2,177.2 245.3,273.4 448.8,285.6 226.3,24.5 28,-276.7 -27.1,-329.9 -132.4,-127.6 -136,-217.7 -91.2,-395.9 94.8,-377.3 43.7,-703.7 -235.7,-1002.4 -121.7,-130.1 -497.4,-356.4 -597.8,-663.3 -55.5,-89 128.5,-391.1 142.5,-511.9 25.5,-220.7 -16.8,-310.6 -139.6,-489.9 -98.2,-143.4 -191.6,-315.5 -231.6,-482.8 -21,-87.6 -31.3,-179.7 2.7,-264.4 32.5,-80.9 118,-146.5 117.1,-246.3 3.2,-14.6 -0.2,-27.7 -10.1,-39.3 0,0 -392.5,-583.4 -737.7,-583 -60,0.1 -240.4,-22.5 -285.8,11.6 -65.7,49.4 -21.5,154.7 57.2,193.9 43.4,21.6 100,-7.1 145.6,8.4 38.5,13.1 51.3,42.9 83,69 65.6,53.8 131.1,110.5 187.4,172.2 74,81.1 69.9,106.9 -11.2,199 -55.6,63 -125.5,120 -188.1,178.5 -163,152.1 -237.6,251.3 -464,262 -186,8.8 -345.2,63.1 -523.5,83.3 -186.5,21.2 -401.1,8.7 -583,59.5 l 23.8,35.7 c -84.3,-228.2 -9.3,-455.2 59.4,-666.3 42.9,-131.6 109.7,-508 -47.5,-583 l -28.6,-19.6 c -90.6,0 -249,-80.7 -300.72,19.6 -52.13,101.1 92.92,155.9 163.62,206.7 -64.1,192 -169.25,685.5 -393.52,768.9 -124.43,75 -156.1,78.4 -247.25,97.9 -95.12,20.3 -88.81,5 -172.45,-35.4 -124.11,-59.9 -262.98,-41.1 -389.71,-107.1 -137.02,-71.4 -246.6,-190.4 -366.17,-291.4 -136.83,-115.7 -294.56,-163.5 -432.98,-267.8 -187.11,-141 -580.49,-631.6 -818.64,-300.4 -33,56.5 47.27,128.5 106.81,143.1 112.59,27.6 139.69,44.3 226.29,130.5 128.58,128.1 260.52,246.9 389.69,371.8 115.59,111.9 260.4,265.2 324.53,413.8 35.84,83.1 8.12,173.3 34.79,262.1 70.01,233 59.9,307.1 59.9,307.1 0,0 -155.07,91 -255.63,61.7 -93.51,-27.3 -176.92,-0.9 -268.58,-7.7 -182.5,-13.7 -243.97,40.8 -355.56,149.9 h 0.17 c -7.72,72.7 41.92,146.2 45.16,226 4.14,102.1 9.84,153.4 75.26,238 40.7,52.5 134.22,115.1 154.23,175.5 30.94,93.6 -68.14,134 -48.86,229 l 11.5,-11.9 c 39.45,-60.6 138.05,-39.8 178.47,-95.2"
         style="fill:#040606;fill-opacity:1;fill-rule:nonzero;stroke:none"
         id="path30" />
      <path
         d="m 4303.32,7164.5 c -26.06,-4.1 -27.98,-21.6 -31.14,-38.6 -13.25,-71.5 -25.31,-143.2 -40.49,-214.3 -32.35,-151.5 -74.63,-300.2 -132.97,-444 -22.86,-56.3 -53.43,-106.4 -107.54,-138.3 -10.24,-6 -20.42,-12.5 -31.37,-17 -57.87,-23.4 -118.8,8.9 -123.38,70.8 -3.06,41.4 1.88,85 12.04,125.3 28.38,112.8 62.82,224.1 92.01,336.7 24.22,93.4 44.54,187.8 66.21,281.9 6.67,29 5.94,35.2 -24.02,53.7 -124.17,76.8 -239.29,165.2 -340.51,271.2 -86.5,90.6 -128.28,199.1 -132.74,322.7 -3.62,100.4 -4.29,201 -7.19,301.5 -3.1,107.5 -16.08,213.6 -48.15,316.8 -13.61,43.7 -35.15,82.2 -68.96,113.9 -145.14,136.3 -272.66,288.2 -390.34,448.3 -64.19,87.4 -125.15,177.1 -186.73,266.3 -61.28,88.9 -107.51,185.4 -140.55,287.9 -58.81,182.5 -115.81,365.6 -174.59,548.1 -16.18,50.2 -33.76,100.3 -54.54,148.7 -45.89,107.2 -126.93,178.1 -236.97,213.8 -65.31,21.2 -132.73,35.8 -198.82,54.7 -46.96,13.4 -94.08,27 -139.68,44.3 -83.08,31.5 -145.66,91 -198.68,159.7 -88.13,114.1 -173.55,230.3 -259.76,345.8 -100.67,134.9 -207.2,264.6 -335.25,375 -62.13,53.5 -126.198,104.9 -188.073,158.7 -32.867,28.6 -64.008,59.4 -93.797,91.2 -16.086,17.2 -29.36,37.6 -40.957,58.2 -24.27,43.2 -25.528,88.8 -5.567,133.7 24.344,54.9 63.192,97.7 116.004,126.4 71.543,38.9 148.19,23.4 198.7,-40.5 35.17,-44.5 67.62,-91.2 102.61,-135.8 57.68,-73.6 130.73,-130.4 205.14,-185.9 107.33,-79.9 220.88,-149.9 337.86,-214.5 13.86,-7.6 28.47,-25.4 46.09,-9.6 17.27,15.4 2.64,32.8 -3.64,47.2 -82.87,189 -165.3,378.3 -282.75,549.5 -20.94,30.5 -43.07,60.4 -62.42,91.9 -26.49,43.1 -45.06,89.6 -52.77,140.1 -5.04,33.1 1.24,62.3 21.09,89.9 44.1,61.2 103.62,88.4 178.05,83.2 37.93,-2.6 69.92,-19 86.6,-54.2 16.84,-35.6 31.74,-72.5 43.48,-110.1 14.57,-46.6 23.84,-94.9 37.48,-141.8 30.48,-104.9 97.42,-186.8 170.7,-264 93.26,-98.3 174.87,-204.9 242.57,-322.4 21,-36.5 46.14,-70.9 72.25,-104 29.6,-37.5 70.4,-50.9 117.06,-40.3 29.54,6.6 58.83,15.4 87.24,26 52.04,19.2 103.25,40.8 154.99,60.9 48.3,18.7 58.33,31.1 56.54,82.3 -1.06,30.2 -4.18,60.8 -10.63,90.3 -12.03,55.1 -41.85,99.5 -89.17,131.3 -8.79,5.9 -17.09,12.6 -26.19,18 -57.94,34 -85.55,86.3 -84.77,151.6 0.61,51.3 3.07,103.4 13.08,153.5 14.4,72 50.16,99.5 123.21,108 17.08,2 34.05,4.9 51.15,6.7 42.33,4.4 78.86,21.6 110.2,49.8 19.66,17.7 39.19,35.7 57.41,54.8 85.18,89.5 188.83,110.5 305.63,83.4 19.32,-4.4 38.67,-9 57.57,-15 96.63,-30.5 191.1,-19.7 283.6,16 50.54,19.6 99.71,42.6 149.64,63.7 25.57,10.8 50.86,22.9 77.36,30.7 22.56,6.7 46.63,10.9 70.11,11.2 59.17,0.9 74.49,-23.5 42.17,-71.9 -37.33,-55.9 -77.22,-110.7 -121.12,-161.6 -47.32,-54.8 -80.24,-114.9 -89.95,-186.4 -11.02,-81.2 -20.17,-162.6 -30,-243.9 -11.58,-95.9 -22.89,-191.7 -34.53,-287.5 -13.13,-108 -3.6,-213.4 31.33,-317 17.27,-51.2 31.92,-103.8 41.85,-156.8 18.05,-96.5 -0.81,-189.9 -36.38,-279.6 -14.13,-35.7 -11.43,-64 7.92,-96.8 44.51,-75.4 97.45,-144.5 152.05,-212.5 121.98,-151.8 230.58,-312.8 331.14,-479.4 132.55,-219.6 264.87,-439.3 397.81,-658.7 26.69,-44 54.82,-87.3 84.14,-129.6 11.06,-16 25.99,-30.1 41.52,-42 38.2,-29.3 59.9,-28.2 94.25,4.5 17.16,16.4 33.06,34.4 47.38,53.3 83.93,110.8 168.06,221.4 265.58,320.8 104.86,107 214.31,208.7 342.23,288.3 59.87,37.2 122.79,67.5 193.43,78.9 89.01,14.2 159.84,-15.5 207.55,-91.5 85.17,-135.7 101.74,-281.4 54.59,-434.1 -29.15,-94.3 -77.88,-179.2 -131.47,-261.4 -82.51,-126.7 -171.06,-248.6 -281.82,-352.6 -105.34,-98.8 -228.88,-170.1 -358.3,-232 -10.63,-5 -22.26,-8.8 -33.84,-11 -32.56,-6.2 -49.04,7.8 -44.31,41.3 2.89,20.4 9.31,42.1 20.29,59.3 22.65,35.5 46.42,71.2 75.08,101.9 73.2,78.2 150.09,153 224.11,230.5 111.21,116.4 205.13,245.7 280.47,388 18.4,34.7 32.12,72.4 43.93,110.1 11.52,36.7 2.84,71.5 -27.19,97.4 -30.43,26.2 -67.35,27.3 -100.75,10.5 -35.07,-17.6 -69.11,-39.6 -98.81,-65.2 -132.68,-114.4 -249.98,-243.6 -357.37,-381.9 -43.8,-56.4 -86.95,-113.4 -131.98,-168.8 -37.86,-46.5 -83.47,-84.5 -136.32,-113.7 -30.42,-16.8 -29.73,-18.4 -25.03,-53.9 11.45,-86.5 23.62,-173 32.66,-259.7 10.02,-96.2 -6.35,-190.5 -32.8,-282.2 -29.64,-102.9 -65.5,-203.9 -96.96,-306.3 -14.33,-46.6 -25.64,-94.2 -36.39,-141.8 -8.61,-38.1 -0.79,-74.7 23.9,-104.9 48.86,-59.9 67.82,-129.6 77.47,-204.6 13.93,-108.1 14.73,-216.4 10.93,-324.8 -3.52,-100.7 9.76,-197.8 50.64,-290.4 2.13,-4.9 3.74,-9.9 5.7,-14.8 41.37,-103.4 19.73,-187 -87.41,-274.7 -48.79,-40 -98.96,-28.1 -127.47,28.8 -17.04,34 -29.85,70.8 -39.32,107.7 -35.52,138.3 -68.76,277.2 -103.18,415.8 -4.35,17.5 -10.6,34.6 -15.99,51.9"
         style="fill:#040606;fill-opacity:1;fill-rule:nonzero;stroke:none"
         id="path32" />
    </g>
  </g>
</svg>
